HIERARCHY
ROOT SpineBase
{
  OFFSET 0.000000 0.000000 0.000000
  CHANNELS 6 Xposition Yposition Zposition Zrotation Xrotation Yrotation
  JOINT SpineMid
  {
    OFFSET 0.000000 28.469264 0.000000
    CHANNELS 3 Zrotation Xrotation Yrotation
    JOINT SpineShoulder
    {
      OFFSET -0.105039 21.173807 -0.642737
      CHANNELS 3 Zrotation Xrotation Yrotation
      JOINT Neck
      {
        OFFSET -0.051357 7.010437 -0.527074
        CHANNELS 3 Zrotation Xrotation Yrotation
        JOINT Head
        {
          OFFSET -3.208912 12.797677 0.109318
          CHANNELS 3 Zrotation Xrotation Yrotation
          End Site
          {
            OFFSET 0 0 0
          }
        }
      }
      JOINT ShoulderLeft
      {
        OFFSET -13.695608 -3.780776 7.427485
        CHANNELS 3 Zrotation Xrotation Yrotation
        JOINT ElbowLeft
        {
          OFFSET -0.480018 -26.002944 3.001814
          CHANNELS 3 Zrotation Xrotation Yrotation
          JOINT WristLeft
          {
            OFFSET 0.258851 -23.859262 -2.811559
            CHANNELS 3 Zrotation Xrotation Yrotation
            JOINT HandLeft
            {
              OFFSET -0.016303 -3.691548 -1.202474
              CHANNELS 3 Zrotation Xrotation Yrotation
              JOINT HandTipLeft
              {
                OFFSET 0.765158 -6.037136 -0.484306
                CHANNELS 3 Zrotation Xrotation Yrotation
                End Site
                {
                  OFFSET 0 0 0
                }
              }
              JOINT ThumbLeft
              {
                OFFSET -2.280703 1.056721 -0.257372
                CHANNELS 3 Zrotation Xrotation Yrotation
                End Site
                {
                  OFFSET 0 0 0
                }
              }
            }
          }
        }
      }
      JOINT ShoulderRight
      {
        OFFSET 10.246424 -3.537749 -11.404021
        CHANNELS 3 Zrotation Xrotation Yrotation
        JOINT ElbowRight
        {
          OFFSET 6.113549 -23.354049 -2.351457
          CHANNELS 3 Zrotation Xrotation Yrotation
          JOINT WristRight
          {
            OFFSET -0.928087 -19.045644 -4.733695
            CHANNELS 3 Zrotation Xrotation Yrotation
            JOINT HandRight
            {
              OFFSET -1.278897 -6.602855 -0.839903
              CHANNELS 3 Zrotation Xrotation Yrotation
              JOINT HandTipRight
              {
                OFFSET -0.531080 -5.780840 -0.713851
                CHANNELS 3 Zrotation Xrotation Yrotation
                End Site
                {
                  OFFSET 0 0 0
                }
              }
              JOINT ThumbRight
              {
                OFFSET 2.709053 -0.534628 -1.358289
                CHANNELS 3 Zrotation Xrotation Yrotation
                End Site
                {
                  OFFSET 0 0 0
                }
              }
            }
          }
        }
      }
    }
  }
  JOINT HipLeft
  {
    OFFSET -5.347076 0.169152 0.203404
    CHANNELS 3 Zrotation Xrotation Yrotation
    JOINT KneeLeft
    {
      OFFSET 4.712295 -28.374461 7.150837
      CHANNELS 3 Zrotation Xrotation Yrotation
      JOINT AnkleLeft
      {
        OFFSET 7.181142 -32.148166 7.544713
        CHANNELS 3 Zrotation Xrotation Yrotation
        JOINT FootLeft
        {
          OFFSET -4.763643 -3.419269 -9.077430
          CHANNELS 3 Zrotation Xrotation Yrotation
          End Site
          {
            OFFSET 0 0 0
          }
        }
      }
    }
  }
  JOINT HipRight
  {
    OFFSET 4.820636 1.319837 -6.541171
    CHANNELS 3 Zrotation Xrotation Yrotation
    JOINT KneeRight
    {
      OFFSET 10.112622 -28.775101 1.567581
      CHANNELS 3 Zrotation Xrotation Yrotation
      JOINT AnkleRight
      {
        OFFSET 5.009771 -33.112353 9.969072
        CHANNELS 3 Zrotation Xrotation Yrotation
        JOINT FootRight
        {
          OFFSET -5.878340 -3.293068 -7.030059
          CHANNELS 3 Zrotation Xrotation Yrotation
          End Site
          {
            OFFSET 0 0 0
          }
        }
      }
    }
  }
}
MOTION
Frames: 15
Frame Time: 0.033333
16.210385 69.377991 319.893050 5.696659 -16.376286 13.979238 0.012622 -0.085966 -13.071875 0.168760 0.355268 0.182693 -8.866334 5.053665 -1.693362 0.000000 0.000000 0.000000 -6.242002 -12.093244 0.964664 6.173375 -19.858982 -2.486227 -13.047207 20.806669 9.909230 -30.876186 52.803474 27.701449 0.000000 0.000000 0.000000 0.000000 0.000000 0.000000 10.504572 0.805089 -7.440421 -2.873945 3.948441 2.290026 0.904999 9.324551 -0.014337 1.818828 9.939388 -2.744413 0.000000 0.000000 0.000000 0.000000 0.000000 0.000000 -20.720895 24.867102 -10.162846 42.200596 0.824609 10.903326 -74.583312 60.139171 28.298165 0.000000 0.000000 0.000000 -16.207410 29.943442 -4.130366 16.539182 -14.480319 -1.194613 8.742257 -1.892379 -16.763568 0.000000 0.000000 0.000000
15.662569 66.435783 318.210809 6.318312 -16.226631 15.562289 -0.162341 0.048761 -14.535610 0.022511 0.298811 0.213094 -10.073890 2.490286 -2.210151 0.000000 0.000000 0.000000 -6.207876 -11.304791 0.978021 5.444753 -20.282511 -2.241564 -10.163389 15.243014 7.649339 -38.152947 56.706068 34.891719 0.000000 0.000000 0.000000 0.000000 0.000000 0.000000 7.899131 0.177824 -6.917359 0.338925 2.376978 1.955081 0.678359 14.292851 -1.272913 -0.142805 3.171222 -0.508241 0.000000 0.000000 0.000000 0.000000 0.000000 0.000000 -17.032100 26.627307 -11.688809 33.703651 5.287730 10.172658 -63.866769 55.138714 20.863597 0.000000 0.000000 0.000000 -18.020097 32.090377 -4.155880 19.628797 -17.973642 -0.750971 3.040753 5.860912 -14.984211 0.000000 0.000000 0.000000
15.034449 63.457787 316.622465 6.412562 -16.349607 16.802966 -0.406595 0.027969 -15.723011 -0.232926 0.198832 0.228909 -9.140567 2.445880 -2.391401 0.000000 0.000000 0.000000 -5.490882 -10.075713 0.976098 4.678769 -20.690467 -2.014858 -8.109411 11.129267 6.106868 -44.525122 59.112549 41.165318 0.000000 0.000000 0.000000 0.000000 0.000000 0.000000 6.018481 0.550979 -6.460035 2.993943 1.053834 1.592727 0.215658 18.388569 -2.266654 0.092595 -2.252511 1.016983 0.000000 0.000000 0.000000 0.000000 0.000000 0.000000 -15.067677 28.898841 -12.707847 29.900913 5.016871 10.028846 -61.703134 56.235088 19.654266 0.000000 0.000000 0.000000 -19.072162 33.994939 -4.143733 23.746270 -23.285243 0.360623 -0.266292 11.563215 -15.509302 0.000000 0.000000 0.000000
14.128734 60.986127 315.135353 6.332026 -16.607151 17.930852 -0.354416 0.001268 -16.857002 -0.186087 0.222739 0.223395 -10.251695 3.030715 -2.070759 0.000000 0.000000 0.000000 -5.566686 -9.144865 0.975878 4.147846 -20.794909 -1.851984 -6.149772 7.145706 4.688313 -51.349198 60.986878 47.883137 0.000000 0.000000 0.000000 0.000000 0.000000 0.000000 3.944984 1.360299 -5.900010 4.203838 0.775025 1.398105 0.012503 18.015375 -2.030912 1.397026 -2.493564 0.927487 0.000000 0.000000 0.000000 0.000000 0.000000 0.000000 -14.158184 30.788993 -13.631658 30.521133 1.123519 10.208035 -66.131603 61.509048 22.761101 0.000000 0.000000 0.000000 -18.534919 35.449081 -4.800512 27.228270 -29.551355 1.800004 -3.171321 17.169826 -15.351687 0.000000 0.000000 0.000000
12.804488 59.604442 313.429651 5.978241 -16.680176 17.201290 -0.371893 0.029614 -16.184407 -0.161017 0.235715 0.205203 -9.708324 2.181841 -2.385630 0.000000 0.000000 0.000000 -4.898049 -8.454512 0.956006 3.615247 -21.237213 -1.716040 -5.523041 5.892798 4.246977 -53.674598 61.514181 50.183305 0.000000 0.000000 0.000000 0.000000 0.000000 0.000000 3.719766 1.924804 -5.683397 3.803670 1.421668 1.391088 -0.370800 13.691553 -0.647258 2.214631 -1.556809 0.212808 0.000000 0.000000 0.000000 0.000000 0.000000 0.000000 -15.979360 30.503942 -12.671320 35.882930 -3.710551 11.058128 -76.970163 68.882498 29.302421 0.000000 0.000000 0.000000 -17.141121 35.358562 -4.557046 28.348752 -34.713830 2.769327 -5.047549 22.129429 -15.470448 0.000000 0.000000 0.000000
11.213680 59.480573 311.784341 5.483821 -17.014918 15.634947 -0.357421 -0.047020 -14.691537 -0.158881 0.239804 0.185224 -8.632125 3.759315 -2.134941 0.000000 0.000000 0.000000 -4.517599 -8.310422 0.943926 3.874260 -21.200476 -1.776817 -6.031796 6.887076 4.603720 -51.883271 61.249308 48.466621 0.000000 0.000000 0.000000 0.000000 0.000000 0.000000 3.658434 2.961257 -5.494554 3.598425 2.125042 1.261686 -2.025773 10.510736 0.658976 4.005639 -0.525986 -0.517972 0.000000 0.000000 0.000000 0.000000 0.000000 0.000000 -19.862548 29.405709 -10.708848 43.500399 -7.318345 12.327152 -95.595340 76.685868 41.528398 0.000000 0.000000 0.000000 -15.297080 34.593198 -3.954459 27.179237 -36.268276 2.886902 -4.634514 22.781974 -16.559801 0.000000 0.000000 0.000000
9.380854 60.491213 310.047649 5.067849 -17.206915 13.669980 -0.356133 -0.043859 -12.793588 -0.172359 0.276570 0.167554 -7.824393 5.523054 -1.761354 0.000000 0.000000 0.000000 -4.012188 -9.202749 0.944185 4.344138 -20.792557 -1.960502 -7.834388 10.564473 5.907006 -45.505276 59.761336 42.266687 0.000000 0.000000 0.000000 0.000000 0.000000 0.000000 3.192024 3.006428 -5.321985 3.445586 4.560683 1.109017 -4.699084 4.171539 2.709335 7.665108 3.487043 -2.624360 0.000000 0.000000 0.000000 0.000000 0.000000 0.000000 -24.387934 27.175900 -8.670088 53.275604 -11.243224 13.853345 -132.194693 80.544312 70.549204 0.000000 0.000000 0.000000 -13.806933 32.832850 -3.284426 25.498654 -34.156107 2.868014 -4.223152 19.240420 -14.482461 0.000000 0.000000 0.000000
7.371551 62.514572 308.457840 4.418678 -17.571045 11.520466 -0.339521 -0.102650 -10.750478 -0.185622 0.284304 0.142377 -4.346958 6.906388 -2.112147 0.000000 0.000000 0.000000 -3.293155 -9.528798 0.931761 4.742654 -20.562703 -2.113183 -10.017510 14.945445 7.541893 -38.341404 57.360364 35.300066 0.000000 0.000000 0.000000 0.000000 0.000000 0.000000 3.268532 3.158538 -5.305346 2.784706 6.550756 1.252057 -7.215763 -3.960598 4.742264 14.988559 14.778954 -8.196308 0.000000 0.000000 0.000000 0.000000 0.000000 0.000000 -27.919594 25.180735 -6.664312 62.976133 -16.454888 15.776226 -171.822390 79.533464 102.230882 0.000000 0.000000 0.000000 -12.835896 31.773654 -1.910169 23.859202 -30.327232 2.676191 -4.384929 13.730407 -9.469424 0.000000 0.000000 0.000000
5.251310 64.816948 306.629244 4.011420 -17.880601 10.950710 -0.324406 -0.025967 -10.248126 -0.167456 0.289506 0.123813 -1.803121 7.771844 -2.453449 0.000000 0.000000 0.000000 -2.665590 -10.345051 0.945166 4.965137 -20.035056 -2.285954 -12.828441 20.371928 9.737901 -30.769582 53.690858 27.950528 0.000000 0.000000 0.000000 0.000000 0.000000 0.000000 3.876321 3.075047 -5.478367 2.270521 6.832790 1.458519 -13.212943 -3.822162 5.551525 23.031188 16.989681 -10.610057 0.000000 0.000000 0.000000 0.000000 0.000000 0.000000 -29.349887 24.057766 -6.359470 68.563134 -17.812794 16.718253 -178.493172 78.365943 104.989674 0.000000 0.000000 0.000000 -11.600777 30.543611 -2.360954 21.521978 -25.454732 1.994887 -2.318639 6.090295 -3.825045 0.000000 0.000000 0.000000
3.378672 67.395049 304.915267 3.414010 -18.163616 10.545023 -0.322299 -0.093112 -9.946989 -0.190254 0.290423 0.101668 2.413670 8.194445 -3.310886 0.000000 0.000000 0.000000 -1.773397 -10.903571 0.944040 5.057239 -19.577874 -2.427814 -16.069436 26.172661 12.371165 -24.223481 49.085303 21.590500 0.000000 0.000000 0.000000 0.000000 0.000000 0.000000 5.199513 3.373224 -5.766602 1.371001 5.903286 1.828459 -12.738013 -3.216369 5.581392 24.468552 17.881494 -11.536966 0.000000 0.000000 0.000000 0.000000 0.000000 0.000000 -28.406334 24.309791 -6.026246 67.876029 -18.249502 16.772964 -174.759567 78.358884 102.125073 0.000000 0.000000 0.000000 -11.600648 30.339049 -2.061009 19.717992 -21.033688 1.123244 4.115190 -6.008358 4.055114 0.000000 0.000000 0.000000
1.724135 69.208820 303.033651 3.262492 -18.488093 8.847418 -0.361414 -0.049547 -8.264124 -0.222936 0.314070 0.095669 6.168224 10.689086 -3.762870 0.000000 0.000000 0.000000 -0.996031 -12.187836 1.004684 4.855541 -18.492191 -2.603753 -19.847015 32.185777 15.567310 -18.872150 43.794418 16.386259 0.000000 0.000000 0.000000 0.000000 0.000000 0.000000 6.042106 2.874760 -6.131260 2.021686 5.066111 1.758451 -14.491515 3.566679 5.268773 24.088765 8.772073 -7.397524 0.000000 0.000000 0.000000 0.000000 0.000000 0.000000 -27.090008 23.120141 -4.773744 61.539752 -15.817229 14.478212 -157.339859 79.488875 89.892985 0.000000 0.000000 0.000000 -14.209941 30.677403 0.736560 18.627432 -16.868748 0.269697 10.813463 -15.482650 9.224353 0.000000 0.000000 0.000000
0.338442 70.478299 301.309929 3.177763 -18.822003 8.599035 -0.337146 -0.140891 -8.026636 -0.230386 0.277382 0.094709 9.808529 12.131220 -4.590931 0.000000 0.000000 0.000000 -0.359179 -12.233529 1.051448 4.454331 -18.133674 -2.607191 -21.407689 34.467065 16.895488 -17.069170 41.660183 14.645187 0.000000 0.000000 0.000000 0.000000 0.000000 0.000000 6.607885 2.871967 -6.420807 2.652667 4.331353 1.630165 -12.270301 10.297635 3.758138 17.070085 1.514223 -2.707825 0.000000 0.000000 0.000000 0.000000 0.000000 0.000000 -24.606382 23.839783 -4.503929 49.249821 -12.681513 11.261021 -115.859878 78.659032 59.979825 0.000000 0.000000 0.000000 -16.517056 32.352748 2.673040 17.616101 -13.995985 -0.692646 15.113110 -20.599137 10.117997 0.000000 0.000000 0.000000
-0.679528 70.156105 299.477789 3.516799 -18.940884 9.711343 -0.352542 -0.163601 -9.066997 -0.241436 0.261695 0.109301 11.377417 13.300085 -4.960095 0.000000 0.000000 0.000000 -0.070778 -12.998625 1.150618 3.936785 -17.316615 -2.629244 -21.676605 34.878982 17.134389 -16.716878 41.406738 14.367182 0.000000 0.000000 0.000000 0.000000 0.000000 0.000000 7.101064 2.348105 -6.766541 3.384490 4.157866 1.362677 -10.818821 13.175595 2.891427 14.381468 -0.463779 -1.378286 0.000000 0.000000 0.000000 0.000000 0.000000 0.000000 -25.754853 23.314729 -5.681779 39.654659 -8.177142 8.108480 -87.288069 77.796959 41.081723 0.000000 0.000000 0.000000 -19.871878 34.511074 4.009288 18.488040 -12.665827 -1.192896 15.360235 -20.510574 4.651928 0.000000 0.000000 0.000000
-1.778916 68.695031 297.514448 3.831606 -18.846657 12.078725 -0.329274 -0.191047 -11.379106 -0.235346 0.246144 0.123503 11.004455 14.020880 -4.817294 0.000000 0.000000 0.000000 -0.223662 -12.358345 1.164297 3.478384 -17.603081 -2.453106 -17.347818 28.502639 13.404922 -21.675261 47.421935 19.288134 0.000000 0.000000 0.000000 0.000000 0.000000 0.000000 7.020961 1.817614 -6.894044 4.509956 4.265899 0.922111 -8.898352 14.654371 1.951760 12.323056 -2.045614 -0.471858 0.000000 0.000000 0.000000 0.000000 0.000000 0.000000 -24.032179 25.327764 -7.690798 27.289673 -5.617820 5.740863 -63.979135 73.988379 29.025119 0.000000 0.000000 0.000000 -21.894504 36.975537 3.775762 18.964686 -11.990674 -1.796034 13.688304 -16.609383 -3.288943 0.000000 0.000000 0.000000
-2.909270 66.403985 295.412108 4.019999 -18.470235 13.470931 -0.287749 -0.201732 -12.752718 -0.214378 0.235376 0.131972 8.389566 13.136564 -4.160250 0.000000 0.000000 0.000000 0.074770 -11.602201 1.173436 2.891934 -18.503881 -2.230150 -16.345758 26.894172 12.551004 -23.156322 48.868042 20.742644 0.000000 0.000000 0.000000 0.000000 0.000000 0.000000 6.708470 1.332398 -6.832392 6.263219 4.048634 0.240959 -2.320090 17.979402 -1.448528 5.003360 -8.414952 2.588698 0.000000 0.000000 0.000000 0.000000 0.000000 0.000000 -21.451407 27.452105 -8.852448 15.460186 -3.774783 3.611728 -48.163398 69.561932 22.991904 0.000000 0.000000 0.000000 -24.215831 38.457091 4.246242 20.317633 -12.478573 -2.013949 11.273211 -10.003863 -11.162681 0.000000 0.000000 0.000000
